<svg xmlns="http://www.w3.org/2000/svg" viewBox="0 0 105 105"><defs><style>.cls-1{fill:#f47d20;}.cls-2,.cls-3{fill:none;stroke:#fff;stroke-linejoin:round;stroke-width:3px;}.cls-2{stroke-linecap:square;}.cls-3{stroke-linecap:round;}</style></defs><g id="Layer_2" data-name="Layer 2"><g id="Layer_1-2" data-name="Layer 1"><circle class="cls-1" cx="52.5" cy="52.5" r="52.5"/><g id="container"><line class="cls-2" x1="41.5" y1="38" x2="43.5" y2="38"/><line class="cls-2" x1="41.5" y1="69" x2="43.5" y2="69"/><line class="cls-2" x1="21.5" y1="67" x2="23.5" y2="67"/><line class="cls-2" x1="21.5" y1="40" x2="23.5" y2="40"/><polygon class="cls-3" points="21.5 73 43.5 76 83.5 73 83.5 37 43.5 29 21.5 34 21.5 73"/><line class="cls-3" x1="43.5" y1="29" x2="43.5" y2="76"/><polyline class="cls-3" points="51.5 42 54.5 42 54.5 65 57.5 65"/><polyline class="cls-3" points="63.5 43 65.5 43 65.5 65 67.5 65"/><polyline class="cls-3" points="73.5 44 75.5 44 75.5 65 77.5 65"/><line class="cls-3" x1="31.5" y1="33" x2="31.5" y2="74"/><line class="cls-3" x1="31.5" y1="54" x2="35.5" y2="54"/><line class="cls-3" x1="31.5" y1="54" x2="28.5" y2="54"/></g></g></g></svg>