<svg xmlns="http://www.w3.org/2000/svg" viewBox="0 0 105 105"><defs><style>.cls-1{fill:#f47d20;}.cls-2,.cls-3{fill:none;stroke:#fff;stroke-linecap:round;stroke-width:3px;}.cls-2{stroke-linejoin:round;}.cls-3{stroke-miterlimit:10;}</style></defs><g id="Layer_2" data-name="Layer 2"><g id="Layer_1-2" data-name="Layer 1"><circle class="cls-1" cx="52.5" cy="52.5" r="52.5"/><g id="air_shipment" data-name="air shipment"><g id="airplane"><polyline class="cls-2" points="36.95 59.58 21.5 54.41 21.5 59.58 28.5 64.5"/><polyline class="cls-2" points="60.29 36.89 21.5 22.5 21.5 29.5 38.09 40.92 47.17 50.02"/><polyline class="cls-2" points="40.5 76.5 45.41 83.5 50.59 83.5 45.42 68.06"/><path class="cls-3" d="M60.35,36.89,72.8,24.44c2.14-2.14,6.94-4.36,9.55-1.78h0c2.56,2.6.34,7.41-1.8,9.55L68.1,44.65"/><path class="cls-2" d="M48.5,64.5l-2.38,2.13c-2.14,2.15-14.22,11.64-16.79,9h0c-2.6-2.57,6.9-14.64,9-16.79L50,47.24"/></g><polyline class="cls-2" points="83.5 52.5 70.5 49.5 53.5 53.5"/><polyline class="cls-2" points="63.5 56.64 67.5 57.5 83.5 53.5"/><polyline class="cls-2" points="53.5 53.5 53.5 71.5 67.5 76.5 83.5 71.5 83.5 52.5"/><line class="cls-2" x1="67.5" y1="57.5" x2="67.5" y2="70.5"/><line class="cls-2" x1="75.83" y1="68.08" x2="78.83" y2="67.08"/></g></g></g></svg>