<svg xmlns="http://www.w3.org/2000/svg" viewBox="0 0 105 105"><defs><style>.cls-1{fill:#1f4c9c;}.cls-2,.cls-3{fill:none;stroke:#fff;stroke-linejoin:round;stroke-width:3px;}.cls-2{stroke-linecap:round;}.cls-3{stroke-linecap:square;}.cls-4{fill:#fff;}</style></defs><g id="Layer_2" data-name="Layer 2"><g id="Layer_1-2" data-name="Layer 1"><circle class="cls-1" cx="52.5" cy="52.5" r="52.5"/><g id="container_ship" data-name="container ship"><path class="cls-2" d="M78.5,76.5l4.34-14.75a2,2,0,0,0-1.66-2.55L55.83,55.93a25.6,25.6,0,0,0-6.66,0L23.82,59.2a2,2,0,0,0-1.66,2.55L26.5,76.5"/><polyline class="cls-3" points="65.5 33.5 65.5 31.5 74.5 29.5 74.5 25.5 30.5 25.5 30.5 29.5 39.5 31.5 39.5 33.5"/><polyline class="cls-2" points="48.5 21.5 48.5 25.5 56.5 25.5 56.5 21.5"/><line class="cls-2" x1="52.5" y1="56.5" x2="52.5" y2="66.5"/><ellipse class="cls-4" cx="61.5" cy="64.5" rx="2" ry="3"/><ellipse class="cls-4" cx="43.5" cy="64.5" rx="2" ry="3"/><path class="cls-2" d="M21.5,83.5l4.68-1.93a37,37,0,0,1,25-1.12l4.17,1.3a37,37,0,0,0,24-.7L83.5,79.5"/><line class="cls-3" x1="58.5" y1="49.5" x2="70.5" y2="49.5"/><polyline class="cls-3" points="70.5 52.5 70.5 49.5 82.5 49.5 82.5 54.5"/><polyline class="cls-3" points="46.5 49.5 58.5 49.5 58.5 51.5"/><polyline class="cls-3" points="34.5 49.5 46.5 49.5 46.5 51.5"/><polyline class="cls-3" points="22.5 54.5 22.5 49.5 34.5 49.5 34.5 52.5"/><line class="cls-2" x1="58.5" y1="37.5" x2="70.5" y2="37.5"/><polyline class="cls-3" points="70.5 49.5 70.5 37.5 82.5 37.5 82.5 49.5"/><polyline class="cls-3" points="46.5 37.5 58.5 37.5 58.5 49.5"/><polyline class="cls-3" points="34.5 37.5 46.5 37.5 46.5 49.5"/><polyline class="cls-3" points="22.5 49.5 22.5 37.5 34.5 37.5 34.5 49.5"/></g></g></g></svg>