<svg xmlns="http://www.w3.org/2000/svg" viewBox="0 0 105 105"><defs><style>.cls-1{fill:#1f4c9c;}.cls-2,.cls-3{fill:none;stroke:#fff;stroke-linejoin:round;stroke-width:3px;}.cls-2{stroke-linecap:round;}.cls-3{stroke-linecap:square;}</style></defs><g id="Layer_2" data-name="Layer 2"><g id="Layer_1-2" data-name="Layer 1"><circle class="cls-1" cx="52.5" cy="52.5" r="52.5"/><g id="call_center-support" data-name="call center-support"><path class="cls-2" d="M55.5,59.5h-5a2,2,0,0,1-2-2h0a2,2,0,0,1,2-2h5a2,2,0,0,1,2,2h0A2,2,0,0,1,55.5,59.5Z"/><path class="cls-2" d="M47.5,57.5h-5a6,6,0,0,1-6-6v-5"/><path class="cls-2" d="M36.5,52.5c-3,0-5-2-5-4.5V45c0-2.48,2-4.5,5-4.5"/><path class="cls-3" d="M83.5,83.5v-.14a14,14,0,0,0-8-12.65l-11-5.21a17.15,17.15,0,0,1-12,5c-4.7,0-7.85-2-11-5l-12,5.21a14,14,0,0,0-8,12.65v.14"/><polyline class="cls-2" points="41.5 65.5 34.5 78.5 44.5 76.5"/><polyline class="cls-2" points="64.5 65.5 70.5 78.5 60.5 76.5"/><path class="cls-2" d="M36.5,46.5v-9a15.73,15.73,0,0,1,16-16c9.11,0,17,7,17,16v15s-1,12,4,17"/><path class="cls-3" d="M65.5,42.5V50c0,6.88-5.62,14.5-12.5,14.5h0c-6.88,0-12.5-7.62-12.5-14.5V42.5"/><polyline class="cls-3" points="65.5 38.5 59.5 38.5 59.5 32.5 54.5 38.5 40.5 38.5"/></g></g></g></svg>