<svg xmlns="http://www.w3.org/2000/svg" viewBox="0 0 105 105"><defs><style>.cls-1{fill:#1f4c9c;}.cls-2,.cls-3{fill:none;stroke:#fff;stroke-linejoin:round;stroke-width:3px;}.cls-2{stroke-linecap:round;}.cls-3{stroke-linecap:square;}</style></defs><g id="Layer_2" data-name="Layer 2"><g id="Layer_1-2" data-name="Layer 1"><circle class="cls-1" cx="52.5" cy="52.5" r="52.5"/><g id="truck_trailer-road_transport" data-name="truck trailer-road transport"><path class="cls-2" d="M75.5,73.5v2a3,3,0,0,1-3,3h-32a3,3,0,0,1-3-3v-2h7.14c.45,0,1.55-.92,1.43-1.43l-.72-2.14a1.83,1.83,0,0,0-2.14-1.43H37.5v-32c0-1.66,1.45-2.75,3.17-3a112,112,0,0,1,15.83-1,112,112,0,0,1,15.83,1c1.75.31,3.17,1.34,3.17,3v32H69.79a1.83,1.83,0,0,0-2.14,1.43l-.72,2.14c-.12.51,1,1.4,1.43,1.43Z"/><path class="cls-3" d="M42.5,62.5h4l3,5h14c-.09,0,3-5,3-5h4"/><line class="cls-2" x1="51.5" y1="62.5" x2="61.5" y2="62.5"/><line class="cls-2" x1="49.5" y1="57.5" x2="63.5" y2="57.5"/><line class="cls-2" x1="53.5" y1="72.5" x2="59.5" y2="72.5"/><path class="cls-2" d="M42.5,39.5v9c0,1.66,1.12,2.66,3,3a72.56,72.56,0,0,0,11,1,72.56,72.56,0,0,0,11-1c1.68-.34,3-1.34,3-3v-9Z"/><path class="cls-2" d="M37.5,52.5l-7.45-3.72a1,1,0,0,1-.55-.9V40.5a1,1,0,0,1,1-1h3"/><path class="cls-2" d="M75.5,52.5,83,48.78a1,1,0,0,0,.55-.9V40.5a1,1,0,0,0-1-1h-3"/><path class="cls-2" d="M39.5,78.5V81A1.5,1.5,0,0,0,41,82.5h6A1.5,1.5,0,0,0,48.5,81V78.5"/><path class="cls-2" d="M64.5,78.5V81A1.5,1.5,0,0,0,66,82.5h6A1.5,1.5,0,0,0,73.5,81V78.5"/><polyline class="cls-3" points="75.5 28.5 75.5 22.5 37.5 22.5 21.5 39.5 21.5 73.5 29.5 73.5"/><path class="cls-2" d="M25.5,78.5V81A1.5,1.5,0,0,0,27,82.5h4A1.5,1.5,0,0,0,32.5,81V78.5"/><polyline class="cls-2" points="32.5 78.5 23.5 78.5 23.5 73.5"/><line class="cls-3" x1="37.5" y1="23.5" x2="37.5" y2="28.5"/></g></g></g></svg>