<svg xmlns="http://www.w3.org/2000/svg" viewBox="0 0 1611.67 1611.67"><defs><style>.cls-1{fill:none;}.cls-2{fill:#00BEFF;}</style></defs><g id="Layer_2" data-name="Layer 2"><g id="Layer_1-2" data-name="Layer 1"><g id="Layer_2-2" data-name="Layer 2"><g id="Bg"><rect class="cls-1" width="1611.67" height="1611.67"/></g><g id="Ñëîé_1" data-name="Ñëîé 1"><path class="cls-2" d="M1477.67,496.26V409.21a7.49,7.49,0,0,1,7.49-7.49h32.29a7.49,7.49,0,0,1,7.49,7.49v87.05a7.49,7.49,0,0,1-7.49,7.49h-32.29A7.49,7.49,0,0,1,1477.67,496.26ZM1510,416.7h-17.29v72.05H1510Z"/><path class="cls-2" d="M1248.22,616.79a7.49,7.49,0,0,1-7.49-7.49V475.61a12,12,0,0,0-12-12h-980a13.39,13.39,0,0,0-2,.18,7.68,7.68,0,0,1-2.62,0,7.5,7.5,0,0,1-6-8.76l8.7-45.82c3.57-18.76,21.32-33.45,40.41-33.45H315V357.22a24.23,24.23,0,0,1,24.2-24.2H343c12.11,0,25.51,8.05,31.18,18.71l12.81,24H1460.09a24.23,24.23,0,0,1,24.21,24.2V581.45A35.38,35.38,0,0,1,1449,616.79H1248.22Zm-865.71-226a7.51,7.51,0,0,1-6.61-4l-14.92-28C357.89,353,349.49,348,343,348h-3.71a9.24,9.24,0,0,0-9.22,9.22v26a7.49,7.49,0,0,1-7.48,7.5H287.29c-11.69,0-23.5,9.74-25.69,21.26l-7,36.66h974.16a27,27,0,0,1,27,27v126.2H1449a20.39,20.39,0,0,0,20.37-20.36V399.93a9.24,9.24,0,0,0-9.23-9.22Zm-82.25,40.81a7.36,7.36,0,0,1-2.62-.48,7.49,7.49,0,0,1-4.38-9.64l5.57-14.86a7.5,7.5,0,0,1,7-4.86H1441.2a7.49,7.49,0,0,1,7.49,7.49v14.86a7.49,7.49,0,0,1-7.49,7.49H300.26Z"/><path class="cls-2" d="M193.58,1200.72a7.67,7.67,0,0,1-2.13-.31,7.5,7.5,0,0,1-5-9.34C235,1029.48,309.15,772.69,319.71,733.83a124,124,0,0,0-4.7-77.66,7.38,7.38,0,0,1-.52-2.78,7.49,7.49,0,0,1,7.52-7.46h230.9a7.49,7.49,0,0,1,6.22,11.66c-16.15,24.15-24.34,50.64-24.34,78.72a138,138,0,0,0,4.92,36.49,7.47,7.47,0,0,1-2.43,7.76c-34.28,28.27-46.28,87-60.28,155l-.16.74c-2.37,11.54-4.6,22.43-6.89,32.82-5,22.63-10,46-15,69.23-12,55.6-24.39,113.2-35,156.6a7.52,7.52,0,0,1-7.28,5.72H193.58Zm213.16-15c10.24-42.48,22.08-97.35,33.61-150.52,5-23.29,10-46.65,15-69.29,2.27-10.33,4.49-21.15,6.85-32.61l.16-.78c14.07-68.47,26.28-127.9,61.75-160.39a153.45,153.45,0,0,1,15.46-111.27h-207a138.52,138.52,0,0,1,1.62,76.85c-10.38,38.18-81.94,286-130.52,448H406.74Z"/><path class="cls-2" d="M91.11,1269.39c-4.37-5.89-5.53-13.8-3.14-21.72,30.79-102.4,144-488.47,156.52-534.34a45.49,45.49,0,0,0-6.22-36.67c-9.35-14.06-26.8-23.06-50.35-26.06-41.76-5.34-59.75-12.79-62.11-25.74-2.58-14.23,15.35-25,37.28-36.59l1.88-1C194,571.92,217,559.8,234.77,474a14.55,14.55,0,0,1,14-11.43h980a13.08,13.08,0,0,1,13.06,13.06V611.26a18.65,18.65,0,0,1-18.63,18.63H1063.54c-3.19.11-78.35,3.69-97.68,131.25-11.82,78-79.08,121-189.39,121-80.92,0-160.45-23.46-186.75-40.46a3.65,3.65,0,0,0-1.66-.7c-12,0-26.8,71.73-34.71,110.26-2.42,11.76-4.82,23.46-7.26,34.59-21.64,98.68-48,218-59.74,265.51-3.79,15.31-19.13,27.31-34.93,27.31H111C102.67,1278.65,95.48,1275.28,91.11,1269.39Zm506.73-440.3c24.74,16,100.63,38.07,178.63,38.07,72.2,0,161-18.79,174.58-108.25,21.31-140.71,108.47-143.93,112.31-144H1223.2a3.67,3.67,0,0,0,3.65-3.65V477.5H249.31C230.08,569.79,203.15,584,172,600.5l-1.87,1c-23.9,12.65-29.25,18.3-29.57,20.59.13.31,3.67,7.81,49.29,13.63,35.35,4.52,52.64,20.23,60.91,32.61a60.64,60.64,0,0,1,8.21,48.92C246.43,763.18,133.11,1149.53,102.29,1252c-1,3.37-.72,6.38.83,8.46s4.34,3.22,7.86,3.22H451.42c8.91,0,18.25-7.29,20.39-15.92,11.71-47.31,38-166.53,59.65-265.12,2.42-11.07,4.82-22.71,7.22-34.39C554.24,872.45,565,826,588.06,826A18,18,0,0,1,597.84,829.09ZM174.75,1223a15.28,15.28,0,0,1-15.12-20.31C203.91,1055.34,287.5,767.32,298.2,728c7.49-27.5,2.36-58.22-13.64-82.22-1.09-1.65-2.27-3.32-3.56-5a9.88,9.88,0,0,1-1.26-10.51c1.5-3,5.24-6.63,14.24-6.63H591.9c8.34,0,11.34,4.27,12.34,6.8s1.78,7.7-4.41,13.53c-28,26.34-42.8,58.34-42.8,92.34A115.51,115.51,0,0,0,566,781a7.48,7.48,0,0,1-3.68,9.64c-36.48,17.42-49.06,78.56-63.6,149.37-2.44,11.86-4.74,23.09-7.11,33.86-4.81,22-9.73,44.63-14.6,67.12-13.76,63.6-26.79,123.69-37,165.41A22.49,22.49,0,0,1,419,1222.94H174.76Zm375-442.48a130,130,0,0,1-7.73-44.23c0-35.89,14.43-69.51,41.86-97.68H297.73c17.79,27.36,23.35,62.12,14.86,93.28-10.67,39.42-94.37,327.69-138.67,475.08a6.54,6.54,0,0,0-.18.88,2.31,2.31,0,0,0,.94.14H418.89a7.45,7.45,0,0,0,6.51-5.1c10.22-41.52,23.23-101.49,37-165,4.88-22.52,9.8-45.16,14.62-67.16,2.35-10.67,4.64-21.85,7.06-33.67,15.2-74,27.38-133.18,65.68-156.54Zm47.9-44.22c0-42,35.56-79.75,93-98.44a26.35,26.35,0,0,1,7.53-1.16c22.27,0,26.08,29.4,29.2,53.57a242,242,0,0,0,4.46,26.6c6.1,24.85,21.1,46.59,41.1,59.59,7.73,5,25.66,13,40.89,13,6.83,0,12.17-1.63,15.83-4.84,1.39-1.24,2-2.32,1.7-3.24-.8-2.86-8.7-6.65-16.9-8.11-22.17-3.93-36.6-13.21-48.26-31-15.14-23.14-17.68-48.7-7.35-73.92,9.2-22.36,21.64-35,37-37.47a51.76,51.76,0,0,1,14.86-.41c72.09,13.13,122.43,56.64,122.43,105.83,0,60.59-75.23,109.89-167.71,109.89S597.75,796.85,597.69,736.26ZM798.3,645.63c-9.87,1.61-18.51,11.16-25.51,28.37-8.42,20.42-6.33,41.18,6,60,9.4,14.37,20.15,21.23,38.34,24.46,5.78,1,25,5.44,28.7,18.81.88,3.15,2,11.26-6.24,18.55-6.48,5.68-15.13,8.56-25.72,8.56-20,0-40.8-10.09-49-15.42-23.19-15.08-40.49-40.07-47.49-68.58-2.37-9.61-3.58-19.09-4.84-28.8-2.18-16.9-5.17-40-14.27-40a11.52,11.52,0,0,0-3.09.48c-50.85,16.56-82.44,48.8-82.44,84.14,0,52.33,68.52,94.91,152.73,94.91S918.2,788.53,918.2,736.2c0-41.81-45.29-79.27-109.69-91a29.22,29.22,0,0,0-3.5-.2A42,42,0,0,0,798.3,645.63ZM281.94,603.05a7.83,7.83,0,0,1-1.45-.14,7.48,7.48,0,0,1-5.9-8.78L293.27,498a7.5,7.5,0,0,1,7.36-6.06h22.89a7.53,7.53,0,0,1,5.78,2.72,7.37,7.37,0,0,1,1.49,3,7.51,7.51,0,0,1,7.29-5.73H361a7.47,7.47,0,0,1,7.28,5.73,7.49,7.49,0,0,1,7.29-5.73h22.89a7.53,7.53,0,0,1,5.78,2.72,7.37,7.37,0,0,1,1.49,3,7.49,7.49,0,0,1,7.29-5.73h22.89a7.51,7.51,0,0,1,5.78,2.72,7.37,7.37,0,0,1,1.49,3,7.52,7.52,0,0,1,7.3-5.73h22.88a7.5,7.5,0,0,1,5.78,2.72,7.39,7.39,0,0,1,1.5,3,7.49,7.49,0,0,1,7.29-5.73h22.89a7.53,7.53,0,0,1,5.78,2.72,7.37,7.37,0,0,1,1.49,3,7.49,7.49,0,0,1,7.29-5.73h22.89a7.83,7.83,0,0,1,1.45.14,7.48,7.48,0,0,1,5.9,8.78l-18.68,96.17a7.47,7.47,0,0,1-7.35,6.06H506.67a7.51,7.51,0,0,1-7.28-5.72,7.48,7.48,0,0,1-7.27,5.72h-22.9a7.48,7.48,0,0,1-7.28-5.72,7.48,7.48,0,0,1-7.27,5.72h-23a7.48,7.48,0,0,1-7.28-5.72,7.49,7.49,0,0,1-7.28,5.72h-22.9a7.52,7.52,0,0,1-7.28-5.72,7.48,7.48,0,0,1-7.27,5.72H356.82a7.48,7.48,0,0,1-7.28-5.72,7.49,7.49,0,0,1-7.28,5.72H319.37a7.51,7.51,0,0,1-7.29-5.72,7.48,7.48,0,0,1-7.27,5.72h-22.9Zm32.5-96.24h-7.63L291,588h7.63Zm37.46,0h-7.64L328.49,588h7.64Zm37.4,0h-7.63L366,588h7.63Zm37.5,0h-7.63L403.4,588H411Zm37.46,0h-7.64L440.86,588h7.63Zm37.41,0h-7.59L478.31,588h7.63Zm37.4,0h-7.63L515.67,588h7.73Z"/></g></g></g></g></svg>