<svg xmlns="http://www.w3.org/2000/svg" viewBox="0 0 65 63"><defs><style>.cls-1,.cls-2{fill:none;stroke:#fff;stroke-linejoin:round;stroke-width:3px;}.cls-1{stroke-linecap:round;}.cls-2{stroke-linecap:square;}</style></defs><g id="Layer_2" data-name="Layer 2"><g id="Layer_1-2" data-name="Layer 1"><g id="truck_trailer-road_transport" data-name="truck trailer-road transport"><path class="cls-1" d="M55.5,52.5v2a3,3,0,0,1-3,3h-32a3,3,0,0,1-3-3v-2h7.14c.45,0,1.55-.92,1.43-1.43l-.72-2.14a1.83,1.83,0,0,0-2.14-1.43H17.5v-32c0-1.66,1.45-2.75,3.17-3a112,112,0,0,1,15.83-1,112,112,0,0,1,15.83,1c1.75.31,3.17,1.34,3.17,3v32H49.79a1.83,1.83,0,0,0-2.14,1.43l-.72,2.14c-.12.51,1,1.4,1.43,1.43Z"/><path class="cls-2" d="M22.5,41.5h4l3,5h14c-.09,0,3-5,3-5h4"/><line class="cls-1" x1="31.5" y1="41.5" x2="41.5" y2="41.5"/><line class="cls-1" x1="29.5" y1="36.5" x2="43.5" y2="36.5"/><line class="cls-1" x1="33.5" y1="51.5" x2="39.5" y2="51.5"/><path class="cls-1" d="M22.5,18.5v9c0,1.66,1.12,2.66,3,3a72.56,72.56,0,0,0,11,1,72.56,72.56,0,0,0,11-1c1.68-.34,3-1.34,3-3v-9Z"/><path class="cls-1" d="M17.5,31.5l-7.45-3.72a1,1,0,0,1-.55-.9V19.5a1,1,0,0,1,1-1h3"/><path class="cls-1" d="M55.5,31.5,63,27.78a1,1,0,0,0,.55-.9V19.5a1,1,0,0,0-1-1h-3"/><path class="cls-1" d="M19.5,57.5V60A1.5,1.5,0,0,0,21,61.5h6A1.5,1.5,0,0,0,28.5,60V57.5"/><path class="cls-1" d="M44.5,57.5V60A1.5,1.5,0,0,0,46,61.5h6A1.5,1.5,0,0,0,53.5,60V57.5"/><polyline class="cls-2" points="55.5 7.5 55.5 1.5 17.5 1.5 1.5 18.5 1.5 52.5 9.5 52.5"/><path class="cls-1" d="M5.5,57.5V60A1.5,1.5,0,0,0,7,61.5h4A1.5,1.5,0,0,0,12.5,60V57.5"/><polyline class="cls-1" points="12.5 57.5 3.5 57.5 3.5 52.5"/><line class="cls-2" x1="17.5" y1="2.5" x2="17.5" y2="7.5"/></g></g></g></svg>