<svg xmlns="http://www.w3.org/2000/svg" viewBox="0 0 65 50"><defs><style>.cls-1,.cls-2{fill:none;stroke:#fff;stroke-linejoin:round;stroke-width:3px;}.cls-1{stroke-linecap:square;}.cls-2{stroke-linecap:round;}</style></defs><g id="Layer_2" data-name="Layer 2"><g id="Layer_1-2" data-name="Layer 1"><g id="container"><line class="cls-1" x1="21.5" y1="10.5" x2="23.5" y2="10.5"/><line class="cls-1" x1="21.5" y1="41.5" x2="23.5" y2="41.5"/><line class="cls-1" x1="1.5" y1="39.5" x2="3.5" y2="39.5"/><line class="cls-1" x1="1.5" y1="12.5" x2="3.5" y2="12.5"/><polygon class="cls-2" points="1.5 45.5 23.5 48.5 63.5 45.5 63.5 9.5 23.5 1.5 1.5 6.5 1.5 45.5"/><line class="cls-2" x1="23.5" y1="1.5" x2="23.5" y2="48.5"/><polyline class="cls-2" points="31.5 14.5 34.5 14.5 34.5 37.5 37.5 37.5"/><polyline class="cls-2" points="43.5 15.5 45.5 15.5 45.5 37.5 47.5 37.5"/><polyline class="cls-2" points="53.5 16.5 55.5 16.5 55.5 37.5 57.5 37.5"/><line class="cls-2" x1="11.5" y1="5.5" x2="11.5" y2="46.5"/><line class="cls-2" x1="11.5" y1="26.5" x2="15.5" y2="26.5"/><line class="cls-2" x1="11.5" y1="26.5" x2="8.5" y2="26.5"/></g></g></g></svg>