<svg xmlns="http://www.w3.org/2000/svg" viewBox="0 0 65 65"><defs><style>.cls-1,.cls-2{fill:none;stroke:#fff;stroke-linejoin:round;stroke-width:3px;}.cls-1{stroke-linecap:round;}.cls-2{stroke-linecap:square;}</style></defs><g id="Layer_2" data-name="Layer 2"><g id="Layer_1-2" data-name="Layer 1"><g id="call_center-support" data-name="call center-support"><path class="cls-1" d="M35.5,39.5h-5a2,2,0,0,1-2-2h0a2,2,0,0,1,2-2h5a2,2,0,0,1,2,2h0A2,2,0,0,1,35.5,39.5Z"/><path class="cls-1" d="M27.5,37.5h-5a6,6,0,0,1-6-6v-5"/><path class="cls-1" d="M16.5,32.5c-3,0-5-2-5-4.5V25c0-2.48,2-4.5,5-4.5"/><path class="cls-2" d="M63.5,63.5v-.14a14,14,0,0,0-8-12.65l-11-5.21a17.15,17.15,0,0,1-12,5c-4.7,0-7.85-2-11-5l-12,5.21a14,14,0,0,0-8,12.65v.14"/><polyline class="cls-1" points="21.5 45.5 14.5 58.5 24.5 56.5"/><polyline class="cls-1" points="44.5 45.5 50.5 58.5 40.5 56.5"/><path class="cls-1" d="M16.5,26.5v-9a15.73,15.73,0,0,1,16-16c9.11,0,17,7,17,16v15s-1,12,4,17"/><path class="cls-2" d="M45.5,22.5V30c0,6.88-5.62,14.5-12.5,14.5h0c-6.88,0-12.5-7.62-12.5-14.5V22.5"/><polyline class="cls-2" points="45.5 18.5 39.5 18.5 39.5 12.5 34.5 18.5 20.5 18.5"/></g></g></g></svg>