<svg xmlns="http://www.w3.org/2000/svg" viewBox="0 0 65 65"><defs><style>.cls-1,.cls-2{fill:none;stroke:#fff;stroke-linejoin:round;stroke-width:3px;}.cls-1{stroke-linecap:round;}.cls-2{stroke-linecap:square;}.cls-3{fill:#fff;}</style></defs><g id="Layer_2" data-name="Layer 2"><g id="Layer_1-2" data-name="Layer 1"><g id="container_ship" data-name="container ship"><path class="cls-1" d="M58.5,56.5l4.34-14.75a2,2,0,0,0-1.66-2.55L35.83,35.93a25.6,25.6,0,0,0-6.66,0L3.82,39.2a2,2,0,0,0-1.66,2.55L6.5,56.5"/><polyline class="cls-2" points="45.5 13.5 45.5 11.5 54.5 9.5 54.5 5.5 10.5 5.5 10.5 9.5 19.5 11.5 19.5 13.5"/><polyline class="cls-1" points="28.5 1.5 28.5 5.5 36.5 5.5 36.5 1.5"/><line class="cls-1" x1="32.5" y1="36.5" x2="32.5" y2="46.5"/><ellipse class="cls-3" cx="41.5" cy="44.5" rx="2" ry="3"/><ellipse class="cls-3" cx="23.5" cy="44.5" rx="2" ry="3"/><path class="cls-1" d="M1.5,63.5l4.68-1.93a37,37,0,0,1,25.05-1.12l4.17,1.3a37,37,0,0,0,24-.7L63.5,59.5"/><line class="cls-2" x1="38.5" y1="29.5" x2="50.5" y2="29.5"/><polyline class="cls-2" points="50.5 32.5 50.5 29.5 62.5 29.5 62.5 34.5"/><polyline class="cls-2" points="26.5 29.5 38.5 29.5 38.5 31.5"/><polyline class="cls-2" points="14.5 29.5 26.5 29.5 26.5 31.5"/><polyline class="cls-2" points="2.5 34.5 2.5 29.5 14.5 29.5 14.5 32.5"/><line class="cls-1" x1="38.5" y1="17.5" x2="50.5" y2="17.5"/><polyline class="cls-2" points="50.5 29.5 50.5 17.5 62.5 17.5 62.5 29.5"/><polyline class="cls-2" points="26.5 17.5 38.5 17.5 38.5 29.5"/><polyline class="cls-2" points="14.5 17.5 26.5 17.5 26.5 29.5"/><polyline class="cls-2" points="2.5 29.5 2.5 17.5 14.5 17.5 14.5 29.5"/></g></g></g></svg>