<svg xmlns="http://www.w3.org/2000/svg" viewBox="0 0 65 65"><defs><style>.cls-1,.cls-2{fill:none;stroke:#fff;stroke-linecap:round;stroke-width:3px;}.cls-1{stroke-linejoin:round;}.cls-2{stroke-miterlimit:10;}</style></defs><g id="Layer_2" data-name="Layer 2"><g id="Layer_1-2" data-name="Layer 1"><g id="air_shipment" data-name="air shipment"><g id="airplane"><polyline class="cls-1" points="16.95 39.58 1.5 34.41 1.5 39.58 8.5 44.5"/><polyline class="cls-1" points="40.29 16.89 1.5 2.5 1.5 9.5 18.09 20.92 27.17 30.02"/><polyline class="cls-1" points="20.5 56.5 25.41 63.5 30.59 63.5 25.42 48.06"/><path class="cls-2" d="M40.35,16.89,52.8,4.44C54.94,2.3,59.74.08,62.35,2.66h0c2.56,2.6.34,7.41-1.8,9.55L48.1,24.65"/><path class="cls-1" d="M28.5,44.5l-2.38,2.13C24,48.78,11.9,58.27,9.33,55.67h0c-2.6-2.57,6.9-14.65,9-16.79L30,27.24"/></g><polyline class="cls-1" points="63.5 32.5 50.5 29.5 33.5 33.5"/><polyline class="cls-1" points="43.5 36.64 47.5 37.5 63.5 33.5"/><polyline class="cls-1" points="33.5 33.5 33.5 51.5 47.5 56.5 63.5 51.5 63.5 32.5"/><line class="cls-1" x1="47.5" y1="37.5" x2="47.5" y2="50.5"/><line class="cls-1" x1="55.83" y1="48.08" x2="58.83" y2="47.08"/></g></g></g></svg>