<svg xmlns="http://www.w3.org/2000/svg" xmlns:xlink="http://www.w3.org/1999/xlink" viewBox="0 0 237.33 94.89"><defs><style>.cls-1,.cls-4,.cls-6{fill:none;}.cls-2{clip-path:url(#clip-path);}.cls-3{fill:url(#linear-gradient);}.cls-4{stroke:#fff;stroke-width:7.5px;}.cls-4,.cls-6{stroke-miterlimit:10;}.cls-5{fill:#fff;}.cls-6{stroke:#e6e7e8;stroke-width:0.2px;}.cls-7{fill:#204a89;}</style><clipPath id="clip-path"><rect class="cls-1" x="4.64" y="3.94" width="88.51" height="85.72" rx="6.31"/></clipPath><linearGradient id="linear-gradient" x1="-54.01" y1="144.64" x2="-53.01" y2="144.64" gradientTransform="translate(-10577.62 -3900.34) rotate(-90) scale(73.47)" gradientUnits="userSpaceOnUse"><stop offset="0" stop-color="#1c75bc"/><stop offset="0.22" stop-color="#1c75bc"/><stop offset="1" stop-color="#0c1d60"/></linearGradient></defs><g id="Layer_2" data-name="Layer 2"><g id="Layer_1-2" data-name="Layer 1"><g class="cls-2"><rect class="cls-3" x="4.64" y="3.94" width="88.51" height="85.72"/><path class="cls-4" d="M4.07,90.83a60.45,60.45,0,0,1,89.41.73"/><polygon class="cls-5" points="6.95 52.05 9.12 50.18 21.56 57.05 13.08 60.59 6.95 52.05"/><polygon class="cls-6" points="6.95 52.05 9.12 50.18 21.56 57.05 13.08 60.59 6.95 52.05"/><path class="cls-5" d="M13.63,62.26,38.36,51.84,26.63,35.37l3.07-3.75,28,12.93L77.54,37s7.76-3.75,11.73-1.88,1.27,7.09-4,9.39S38.36,62.68,38.36,62.68l-6,2.09a42,42,0,0,1-18.77-2.51"/><path class="cls-6" d="M13.63,62.26,38.36,51.84,26.63,35.37l3.07-3.75,28,12.93L77.54,37s7.76-3.75,11.73-1.88,1.27,7.09-4,9.39S38.36,62.68,38.36,62.68l-6,2.09A42,42,0,0,1,13.63,62.26Z"/></g><path class="cls-7" d="M105.21,34.4H124.6a22.64,22.64,0,0,1,8.72,1.45,14.86,14.86,0,0,1,5.42,3.66,12.52,12.52,0,0,1,2.76,5,18.64,18.64,0,0,1,0,10.67,12.52,12.52,0,0,1-2.76,5,14.86,14.86,0,0,1-5.42,3.66,22.47,22.47,0,0,1-8.72,1.44H112.69v24.3h-7.48Zm7.48,24.3h9.81a26,26,0,0,0,4.32-.35,11.63,11.63,0,0,0,3.82-1.28,7.07,7.07,0,0,0,2.68-2.69,9,9,0,0,0,1-4.55,9,9,0,0,0-1-4.56,7,7,0,0,0-2.68-2.69,11.63,11.63,0,0,0-3.82-1.28A26,26,0,0,0,122.5,41h-9.81Z"/><path class="cls-7" d="M151.39,34.4h19.16a24.78,24.78,0,0,1,6.66.86,15.75,15.75,0,0,1,5.29,2.53A11.9,11.9,0,0,1,186,42.08a13.61,13.61,0,0,1,1.28,6.11,11.29,11.29,0,0,1-2.64,7.75,15.49,15.49,0,0,1-6.86,4.4v.15a11.85,11.85,0,0,1,4.68,1.29,12.66,12.66,0,0,1,3.77,3A14,14,0,0,1,188.77,69a14.2,14.2,0,0,1,.94,5.22,13.77,13.77,0,0,1-1.52,6.58A14.08,14.08,0,0,1,184,85.57a19.09,19.09,0,0,1-6.15,3,26.91,26.91,0,0,1-7.55,1H151.39Zm7.48,22.9h10.2a17.44,17.44,0,0,0,4-.43,8.68,8.68,0,0,0,3.27-1.44,7.16,7.16,0,0,0,2.22-2.57,8.07,8.07,0,0,0,.82-3.81,8.4,8.4,0,0,0-2.1-5.69q-2.1-2.41-6.62-2.41H158.87Zm0,25.7h11a23.2,23.2,0,0,0,3.78-.35,11.21,11.21,0,0,0,3.85-1.4,9.56,9.56,0,0,0,3-2.84,8.19,8.19,0,0,0,1.24-4.75c0-3.27-1.06-5.73-3.19-7.36s-5-2.46-8.64-2.46H158.87Z"/><path class="cls-7" d="M202.09,78a12.34,12.34,0,0,0,5.18,4.48,15.48,15.48,0,0,0,6.5,1.44,13.25,13.25,0,0,0,3.82-.59,11.48,11.48,0,0,0,3.54-1.75,9.46,9.46,0,0,0,2.61-2.88,7.61,7.61,0,0,0,1-4,6,6,0,0,0-2-4.87,17.42,17.42,0,0,0-5-2.8c-2-.76-4.19-1.48-6.55-2.19A26.47,26.47,0,0,1,204.62,62a15.93,15.93,0,0,1-5-5,15.62,15.62,0,0,1-2-8.53,14.34,14.34,0,0,1,1.05-5.14,14.61,14.61,0,0,1,3.31-5,18.16,18.16,0,0,1,5.81-3.78A21.59,21.59,0,0,1,216.26,33a29.81,29.81,0,0,1,8.65,1.25,14.88,14.88,0,0,1,7.24,5.06l-6.07,5.53a10.1,10.1,0,0,0-4-3.5A12.47,12.47,0,0,0,216.26,40a14,14,0,0,0-5.17.82,9.19,9.19,0,0,0-3.31,2.1A7.38,7.38,0,0,0,206,45.7a8.33,8.33,0,0,0-.5,2.72,7,7,0,0,0,2,5.38,15.75,15.75,0,0,0,5,3,61.59,61.59,0,0,0,6.55,2.11,27.75,27.75,0,0,1,6.54,2.61,15.15,15.15,0,0,1,5,4.51,13.31,13.31,0,0,1,2,7.83,16.45,16.45,0,0,1-1.52,7.16,15.89,15.89,0,0,1-4.09,5.38A18.24,18.24,0,0,1,221,89.78,23.49,23.49,0,0,1,213.54,91a27.35,27.35,0,0,1-10-1.87,16.51,16.51,0,0,1-7.55-5.77Z"/><rect class="cls-1" width="237.33" height="94.89"/></g></g></svg>