<svg xmlns="http://www.w3.org/2000/svg" xmlns:xlink="http://www.w3.org/1999/xlink" viewBox="0 0 231.36 104.27"><defs><style>.cls-1,.cls-4,.cls-6{fill:none;}.cls-2{clip-path:url(#clip-path);}.cls-3{fill:url(#linear-gradient);}.cls-4{stroke:#fff;stroke-width:7.5px;}.cls-4,.cls-6{stroke-miterlimit:10;}.cls-5{fill:#fff;}.cls-6{stroke:#e6e7e8;stroke-width:0.2px;}.cls-7{fill:#204a89;}.cls-8{fill:#1b447e;}</style><clipPath id="clip-path" transform="translate(3.3)"><rect class="cls-1" width="88.51" height="85.72" rx="6.31"/></clipPath><linearGradient id="linear-gradient" x1="-57.18" y1="141.87" x2="-56.18" y2="141.87" gradientTransform="translate(-10375.59 -4136.67) rotate(-90) scale(73.47)" gradientUnits="userSpaceOnUse"><stop offset="0" stop-color="#1c75bc"/><stop offset="0.22" stop-color="#1c75bc"/><stop offset="1" stop-color="#0c1d60"/></linearGradient></defs><g id="Layer_2" data-name="Layer 2"><g id="Layer_1-2" data-name="Layer 1"><g class="cls-2"><rect class="cls-3" x="3.3" width="88.51" height="85.72"/><path class="cls-4" d="M-.56,86.89a60.44,60.44,0,0,1,89.41.72" transform="translate(3.3)"/><polygon class="cls-5" points="5.62 48.11 7.78 46.23 20.23 53.1 11.75 56.65 5.62 48.11"/><polygon class="cls-6" points="5.62 48.11 7.78 46.23 20.23 53.1 11.75 56.65 5.62 48.11"/><path class="cls-5" d="M9,58.32,33.72,47.9,22,31.43l3.07-3.75L53,40.6,72.9,33.1s7.76-3.76,11.73-1.88,1.27,7.09-4,9.38S33.72,58.74,33.72,58.74l-5.95,2.08A42.14,42.14,0,0,1,9,58.32" transform="translate(3.3)"/><path class="cls-6" d="M9,58.32,33.72,47.9,22,31.43l3.07-3.75L53,40.6,72.9,33.1s7.76-3.76,11.73-1.88,1.27,7.09-4,9.38S33.72,58.74,33.72,58.74l-5.95,2.08A42.14,42.14,0,0,1,9,58.32Z" transform="translate(3.3)"/></g><path class="cls-7" d="M100.57,30.46H120a22.74,22.74,0,0,1,8.73,1.44,14.82,14.82,0,0,1,5.41,3.66,12.37,12.37,0,0,1,2.76,5,18.64,18.64,0,0,1,0,10.67,12.4,12.4,0,0,1-2.76,5,14.82,14.82,0,0,1-5.41,3.66A22.74,22.74,0,0,1,120,61.3H108.05V85.6h-7.48Zm7.48,24.3h9.81a27.07,27.07,0,0,0,4.32-.35A11.41,11.41,0,0,0,126,53.12a7,7,0,0,0,2.69-2.68,9.11,9.11,0,0,0,1-4.56,9,9,0,0,0-1-4.55A7,7,0,0,0,126,38.64a11.87,11.87,0,0,0-3.82-1.29,27.07,27.07,0,0,0-4.32-.35h-9.81Z" transform="translate(3.3)"/><path class="cls-7" d="M146.75,30.46h19.16a24.78,24.78,0,0,1,6.66.86,15.62,15.62,0,0,1,5.3,2.53,11.74,11.74,0,0,1,3.5,4.28,13.66,13.66,0,0,1,1.29,6.12A11.27,11.27,0,0,1,180,52a15.43,15.43,0,0,1-6.85,4.4v.16a11.64,11.64,0,0,1,4.67,1.29,12.83,12.83,0,0,1,3.78,3,14.23,14.23,0,0,1,3.46,9.46,13.8,13.8,0,0,1-1.52,6.58,14.25,14.25,0,0,1-4.16,4.79,19.46,19.46,0,0,1-6.16,3,27.23,27.23,0,0,1-7.55,1H146.75Zm7.48,22.9h10.2a17.38,17.38,0,0,0,4-.43,9.13,9.13,0,0,0,3.28-1.44,7.45,7.45,0,0,0,2.22-2.57,8.2,8.2,0,0,0,.81-3.82,8.37,8.37,0,0,0-2.1-5.68Q170.51,37,166,37H154.23Zm0,25.7h11a23.2,23.2,0,0,0,3.78-.35,11.42,11.42,0,0,0,3.85-1.4,9.59,9.59,0,0,0,3-2.85,8.15,8.15,0,0,0,1.25-4.75c0-3.27-1.07-5.72-3.19-7.36s-5-2.45-8.65-2.45H154.23Z" transform="translate(3.3)"/><path class="cls-7" d="M197.45,74.07a12.27,12.27,0,0,0,5.18,4.48A15.49,15.49,0,0,0,209.14,80a13.21,13.21,0,0,0,3.81-.58,11.88,11.88,0,0,0,3.55-1.75,9.47,9.47,0,0,0,2.6-2.89,7.59,7.59,0,0,0,1-4,6,6,0,0,0-2-4.87,17.77,17.77,0,0,0-5-2.8q-3-1.12-6.54-2.18A26.37,26.37,0,0,1,200,58a16,16,0,0,1-5-5,15.67,15.67,0,0,1-2-8.53,14.71,14.71,0,0,1,4.36-10.13,18.26,18.26,0,0,1,5.8-3.77,21.61,21.61,0,0,1,8.53-1.52,29.74,29.74,0,0,1,8.64,1.25,14.84,14.84,0,0,1,7.25,5.06l-6.08,5.53a10.09,10.09,0,0,0-4-3.51,12.59,12.59,0,0,0-5.84-1.32,14,14,0,0,0-5.18.82,9.15,9.15,0,0,0-3.31,2.1,7.4,7.4,0,0,0-1.75,2.76,8.46,8.46,0,0,0-.51,2.73,6.92,6.92,0,0,0,2,5.37,15.71,15.71,0,0,0,5,3,59.92,59.92,0,0,0,6.54,2.1A28.63,28.63,0,0,1,221,57.6a15.21,15.21,0,0,1,5,4.52c1.35,1.9,2,4.5,2,7.83a16.52,16.52,0,0,1-1.52,7.16,15.73,15.73,0,0,1-4.09,5.37,17.89,17.89,0,0,1-6.07,3.35A23.49,23.49,0,0,1,208.9,87a27.14,27.14,0,0,1-10.05-1.87,16.47,16.47,0,0,1-7.55-5.76Z" transform="translate(3.3)"/><path class="cls-8" d="M1.28,104h-1v-10h1Z" transform="translate(3.3)"/><path class="cls-8" d="M11.2,102.5h0V94.06h1v10H11L5,95.5H5V104H4v-10H5.26Z" transform="translate(3.3)"/><path class="cls-8" d="M18.14,104h-1V95H13.8v-.93h7.68V95H18.14Z" transform="translate(3.3)"/><path class="cls-8" d="M24.05,103.09h5.33V104H23v-10h6.17V95H24.05v3.39h4.82v.93H24.05Z" transform="translate(3.3)"/><path class="cls-8" d="M32.4,104h-1v-10h3.07a3.88,3.88,0,0,1,2.39.66,2.33,2.33,0,0,1,.88,2,2.51,2.51,0,0,1-.65,1.75,2.82,2.82,0,0,1-1.89.82L38.06,104H36.82l-2.73-4.63H32.4Zm0-5.56h1.8a3.89,3.89,0,0,0,1.15-.14A2.19,2.19,0,0,0,36.1,98a1.37,1.37,0,0,0,.41-.55,1.91,1.91,0,0,0,.13-.68,1.86,1.86,0,0,0-.13-.67,1.45,1.45,0,0,0-.41-.55,2,2,0,0,0-.75-.38A4.29,4.29,0,0,0,34.2,95H32.4Z" transform="translate(3.3)"/><path class="cls-8" d="M46.94,102.5h0V94.06h1v10H46.72L40.78,95.5h0V104h-1v-10H41Z" transform="translate(3.3)"/><path class="cls-8" d="M50.53,104H49.35l4.33-10h1L59,104H57.81l-1.09-2.62H51.63ZM52,100.47h4.31l-2.15-5.23Z" transform="translate(3.3)"/><path class="cls-8" d="M62.6,104h-1V95H58.25v-.93h7.68V95H62.6Z" transform="translate(3.3)"/><path class="cls-8" d="M68.5,104h-1v-10h1Z" transform="translate(3.3)"/><path class="cls-8" d="M80.92,99a5.53,5.53,0,0,1-.39,2.1,5.19,5.19,0,0,1-9.6,0,5.85,5.85,0,0,1,0-4.2A5.33,5.33,0,0,1,72,95.29a5.16,5.16,0,0,1,1.65-1.09,5.64,5.64,0,0,1,4.12,0,5.16,5.16,0,0,1,1.65,1.09,5.33,5.33,0,0,1,1.09,1.65A5.53,5.53,0,0,1,80.92,99Zm-1.1,0a4.75,4.75,0,0,0-.28-1.64A4.18,4.18,0,0,0,78.73,96a3.9,3.9,0,0,0-1.28-.94,4.4,4.4,0,0,0-3.44,0,3.9,3.9,0,0,0-1.28.94,4.18,4.18,0,0,0-.81,1.37,4.94,4.94,0,0,0,0,3.28,4.18,4.18,0,0,0,.81,1.37A3.9,3.9,0,0,0,74,103a4.4,4.4,0,0,0,3.44,0,3.9,3.9,0,0,0,1.28-.94,4.18,4.18,0,0,0,.81-1.37A4.75,4.75,0,0,0,79.82,99Z" transform="translate(3.3)"/><path class="cls-8" d="M90.16,102.5h0V94.06h1v10H89.93L84,95.5h0V104H83v-10h1.26Z" transform="translate(3.3)"/><path class="cls-8" d="M93.74,104H92.56l4.33-10h1l4.33,10H101l-1.1-2.62H94.84Zm1.48-3.55h4.32l-2.15-5.23Z" transform="translate(3.3)"/><path class="cls-8" d="M104.59,103.09h4.64V104h-5.66v-10h1Z" transform="translate(3.3)"/><path class="cls-8" d="M115.56,104h-1v-10h6V95h-5v3.39h4.64v.93h-4.64Z" transform="translate(3.3)"/><path class="cls-8" d="M123.39,104h-1v-10h3.06a3.91,3.91,0,0,1,2.4.66,2.33,2.33,0,0,1,.88,2,2.47,2.47,0,0,1-.66,1.75,2.77,2.77,0,0,1-1.89.82L129,104h-1.23l-2.73-4.63h-1.69Zm0-5.56h1.8a3.89,3.89,0,0,0,1.15-.14,2.19,2.19,0,0,0,.75-.37,1.37,1.37,0,0,0,.41-.55,1.91,1.91,0,0,0,.12-.68,1.85,1.85,0,0,0-.12-.67,1.45,1.45,0,0,0-.41-.55,2,2,0,0,0-.75-.38,4.29,4.29,0,0,0-1.15-.13h-1.8Z" transform="translate(3.3)"/><path class="cls-8" d="M131.74,103.09h5.33V104h-6.34v-10h6.17V95h-5.16v3.39h4.83v.93h-4.83Z" transform="translate(3.3)"/><path class="cls-8" d="M140.1,104h-1v-10h1Z" transform="translate(3.3)"/><path class="cls-8" d="M150.17,95.89a3.66,3.66,0,0,0-1.21-.84,4.42,4.42,0,0,0-3.35,0,3.84,3.84,0,0,0-1.29.94,4.18,4.18,0,0,0-.81,1.37,4.94,4.94,0,0,0,0,3.28,4.18,4.18,0,0,0,.81,1.37,3.84,3.84,0,0,0,1.29.94,4,4,0,0,0,1.71.35,5.64,5.64,0,0,0,1.49-.19,4.82,4.82,0,0,0,1.27-.51V99.31H147.7v-.93h3.39v4.88a7,7,0,0,1-1.85.75,7.82,7.82,0,0,1-1.92.26,5.4,5.4,0,0,1-2.06-.39,5.17,5.17,0,0,1-1.64-1.09,5,5,0,0,1-1.09-1.65,5.85,5.85,0,0,1,0-4.2,5,5,0,0,1,2.73-2.74,5.4,5.4,0,0,1,2.06-.39,5.84,5.84,0,0,1,2.07.33,4.4,4.4,0,0,1,1.54,1Z" transform="translate(3.3)"/><path class="cls-8" d="M153.77,94.06h1v4.32h5.43V94.06h1v10h-1V99.31h-5.43V104h-1Z" transform="translate(3.3)"/><path class="cls-8" d="M167.13,104h-1V95h-3.33v-.93h7.68V95h-3.33Z" transform="translate(3.3)"/><path class="cls-8" d="M177,103.09h4.64V104h-5.66v-10h1Z" transform="translate(3.3)"/><path class="cls-8" d="M184,104h-1v-10h1Z" transform="translate(3.3)"/><path class="cls-8" d="M191.62,102.16l3.36-8.1h1.55v10h-1V95.41h0l-3.6,8.61h-.53l-3.6-8.61h0V104h-1v-10h1.54Z" transform="translate(3.3)"/><path class="cls-8" d="M200.26,104h-1v-10h1Z" transform="translate(3.3)"/><path class="cls-8" d="M206.16,104h-1V95h-3.33v-.93h7.68V95h-3.34Z" transform="translate(3.3)"/><path class="cls-8" d="M212.07,103.09h5.33V104h-6.34v-10h6.17V95h-5.16v3.39h4.82v.93h-4.82Z" transform="translate(3.3)"/><path class="cls-8" d="M219.27,94.06h3.31a5.85,5.85,0,0,1,1.86.31,5.3,5.3,0,0,1,1.69.94,4.61,4.61,0,0,1,1.21,1.56,5.27,5.27,0,0,1,0,4.35,4.67,4.67,0,0,1-1.21,1.55,5.3,5.3,0,0,1-1.69.94,6.14,6.14,0,0,1-1.86.31h-3.31Zm1,9h2a5.2,5.2,0,0,0,2-.34,4.07,4.07,0,0,0,1.39-.92,3.68,3.68,0,0,0,.82-1.29,4.3,4.3,0,0,0,0-3,3.68,3.68,0,0,0-.82-1.29,4.07,4.07,0,0,0-1.39-.92,5.2,5.2,0,0,0-2-.34h-2Z" transform="translate(3.3)"/></g></g></svg>