<svg xmlns="http://www.w3.org/2000/svg" viewBox="0 0 1611.67 1611.67"><defs><style>.cls-1{fill:none;}.cls-2{fill:#fff;}</style></defs><g id="Layer_2" data-name="Layer 2"><g id="Bg"><rect class="cls-1" width="1611.67" height="1611.67"/></g><g id="Ñëîé_1" data-name="Ñëîé 1"><path class="cls-2" d="M1129.65,1277.53H482.51a97.72,97.72,0,0,1-96.61-83.2L347.21,936.38l20.73-3.11,38.69,258a76.27,76.27,0,0,0,75.88,65.35h647.14a76.26,76.26,0,0,0,75.88-65.35l38.7-258,20.73,3.11-38.7,257.95a97.7,97.7,0,0,1-96.61,83.2Z"/><path class="cls-2" d="M1244.23,853.32l-38.7-258A76.26,76.26,0,0,0,1129.65,530H482.51a76.27,76.27,0,0,0-75.88,65.35l-38.69,258-20.73-3.11,38.69-258a97.69,97.69,0,0,1,96.61-83.2h647.14a97.67,97.67,0,0,1,96.61,83.2l38.7,258Z"/><path class="cls-2" d="M532,945.26H324.31a52,52,0,1,1,0-103.93H532a10.48,10.48,0,1,1,0,21H324.31a31,31,0,0,0-31,31,31,31,0,0,0,31,31H532a10.48,10.48,0,0,1,0,21Z"/><path class="cls-2" d="M1287.35,944.76H1079.67a10.48,10.48,0,0,1,0-21h207.68a31,31,0,0,0,31-31,31,31,0,0,0-31-31H1079.67a10.48,10.48,0,0,1,0-21h207.68a52,52,0,1,1,0,103.93Z"/><path class="cls-2" d="M619.21,978.53a47.91,47.91,0,0,1-47.86-47.86V855.92a47.86,47.86,0,1,1,95.71,0v74.75A47.91,47.91,0,0,1,619.21,978.53Zm0-149.51a26.93,26.93,0,0,0-26.9,26.9v74.75a26.9,26.9,0,0,0,53.79,0V855.92A26.93,26.93,0,0,0,619.21,829Z"/><path class="cls-2" d="M992.46,978a47.91,47.91,0,0,1-47.86-47.86V855.42a47.86,47.86,0,1,1,95.72,0v74.75A47.91,47.91,0,0,1,992.46,978Zm0-149.51a26.93,26.93,0,0,0-26.89,26.9v74.75a26.9,26.9,0,0,0,53.79,0V855.42A26.93,26.93,0,0,0,992.46,828.52Z"/><path class="cls-2" d="M908.17,861.79h0l-200.39,0a10.49,10.49,0,0,1,0-21h0l200.4.05a10.48,10.48,0,1,1,0,21Z"/><path class="cls-2" d="M908.67,945.32h0l-200.39,0a10.48,10.48,0,0,1,0-21h0l200.4,0a10.48,10.48,0,0,1,0,21Z"/><path class="cls-2" d="M483.52,754.57A10.48,10.48,0,0,1,473,744.09V593.79a10.48,10.48,0,0,1,21,0v150.3A10.48,10.48,0,0,1,483.52,754.57Z"/><path class="cls-2" d="M631.17,754.57a10.49,10.49,0,0,1-10.49-10.48V593.79a10.49,10.49,0,0,1,21,0v150.3A10.49,10.49,0,0,1,631.17,754.57Z"/><path class="cls-2" d="M754.69,754.57a10.48,10.48,0,0,1-10.48-10.48V593.79a10.48,10.48,0,1,1,21,0v150.3A10.48,10.48,0,0,1,754.69,754.57Z"/><path class="cls-2" d="M881.79,754.57a10.48,10.48,0,0,1-10.48-10.48V593.79a10.48,10.48,0,0,1,21,0v150.3A10.48,10.48,0,0,1,881.79,754.57Z"/><path class="cls-2" d="M1004.52,754.57A10.48,10.48,0,0,1,994,744.09V593.79a10.48,10.48,0,0,1,21,0v150.3A10.48,10.48,0,0,1,1004.52,754.57Z"/><path class="cls-2" d="M1128,754.57a10.49,10.49,0,0,1-10.48-10.48V593.79a10.49,10.49,0,0,1,21,0v150.3A10.49,10.49,0,0,1,1128,754.57Z"/><path class="cls-2" d="M483.82,1196.42a10.48,10.48,0,0,1-10.48-10.48v-150.3a10.48,10.48,0,0,1,21,0v150.3A10.48,10.48,0,0,1,483.82,1196.42Z"/><path class="cls-2" d="M631.47,1196.42A10.48,10.48,0,0,1,621,1185.94v-150.3a10.48,10.48,0,0,1,21,0v150.3A10.48,10.48,0,0,1,631.47,1196.42Z"/><path class="cls-2" d="M755,1196.42a10.48,10.48,0,0,1-10.48-10.48v-150.3a10.48,10.48,0,0,1,21,0v150.3A10.48,10.48,0,0,1,755,1196.42Z"/><path class="cls-2" d="M882.1,1196.42a10.49,10.49,0,0,1-10.49-10.48v-150.3a10.49,10.49,0,0,1,21,0v150.3A10.49,10.49,0,0,1,882.1,1196.42Z"/><path class="cls-2" d="M1004.33,1195.92a10.49,10.49,0,0,1-10.49-10.48v-150.3a10.49,10.49,0,0,1,21,0v150.3A10.49,10.49,0,0,1,1004.33,1195.92Z"/><path class="cls-2" d="M1127.85,1195.92a10.48,10.48,0,0,1-10.48-10.48v-150.3a10.48,10.48,0,1,1,21,0v150.3A10.48,10.48,0,0,1,1127.85,1195.92Z"/><path class="cls-2" d="M990.48,519h-21v-96.9c0-37-34.42-67-76.73-67H718.37c-42.3,0-76.72,30.07-76.72,67V519h-21v-96.9c0-48.53,43.83-88,97.69-88H892.79c53.87,0,97.69,39.47,97.69,88Z"/><path class="cls-2" d="M925.08,519h-21V452.59c0-21.7-14.85-39.35-33.12-39.35H740.18c-18.27,0-33.13,17.65-33.13,39.35V519h-21V452.59c0-33.26,24.26-60.31,54.09-60.31H871c29.82,0,54.09,27.05,54.09,60.31Z"/></g></g></svg>