<svg xmlns="http://www.w3.org/2000/svg" viewBox="0 0 1611.67 1611.67"><defs><style>.cls-1{fill:none;}.cls-2{fill:#00BEFF;}</style></defs><g id="Layer_2" data-name="Layer 2"><g id="Bg"><rect class="cls-1" width="1611.67" height="1611.67"/><path class="cls-2" d="M1198.31,505.65H80.36a11.51,11.51,0,0,0-11.5,11.5V915.27a11.51,11.51,0,0,0,11.5,11.5h1118a11.51,11.51,0,0,0,11.5-11.5V517.15A11.51,11.51,0,0,0,1198.31,505.65ZM91.86,903.77V528.65h1095V903.77Z"/><path class="cls-2" d="M1334.51,929.55a88.23,88.23,0,1,0,88.24,88.23A88.33,88.33,0,0,0,1334.51,929.55Zm0,153.47a65.24,65.24,0,1,1,65.24-65.24A65.31,65.31,0,0,1,1334.51,1083Z"/><path class="cls-2" d="M1334.51,970.85a46.94,46.94,0,1,0,46.93,46.93A47,47,0,0,0,1334.51,970.85Zm0,70.87a23.94,23.94,0,1,1,23.94-23.94A24,24,0,0,1,1334.51,1041.72Z"/><path class="cls-2" d="M346.41,954.86A11.5,11.5,0,0,0,331,937.79a83.1,83.1,0,0,0-21.62,31.88h-229a11.5,11.5,0,0,0,0,23H303.63a109,109,0,0,0-.72,17.88,11.48,11.48,0,0,0,11.49,11l.55,0a11.51,11.51,0,0,0,10.94-12,81.06,81.06,0,0,1,2.56-24.34,11.26,11.26,0,0,0,.55-1.93A61.6,61.6,0,0,1,346.41,954.86Z"/><path class="cls-2" d="M429.54,929.55a88.23,88.23,0,1,0,88.23,88.23A88.33,88.33,0,0,0,429.54,929.55Zm0,153.47a65.24,65.24,0,1,1,65.23-65.24A65.31,65.31,0,0,1,429.54,1083Z"/><path class="cls-2" d="M429.54,970.85a46.94,46.94,0,1,0,46.93,46.93A47,47,0,0,0,429.54,970.85Zm0,70.87a23.94,23.94,0,1,1,23.94-23.94A24,24,0,0,1,429.54,1041.72Z"/><path class="cls-2" d="M619,929.55a88.23,88.23,0,1,0,88.23,88.23A87.63,87.63,0,0,0,619,929.55Zm46.13,134.36a65.24,65.24,0,1,1,19.1-46.13A64.84,64.84,0,0,1,665.16,1063.91Z"/><path class="cls-2" d="M619,970.85A46.94,46.94,0,1,0,666,1017.78,47,47,0,0,0,619,970.85Zm0,70.87A23.94,23.94,0,1,1,643,1017.78,24,24,0,0,1,619,1041.72Z"/><path class="cls-2" d="M1198.32,963.25H736.41a81.73,81.73,0,0,0-18.84-25.45,11.48,11.48,0,0,0-16.24.82,11.51,11.51,0,0,0,.83,16.24,60.07,60.07,0,0,1,15.52,22.92,10.12,10.12,0,0,0,.69,1.86,79.25,79.25,0,0,1,4.32,29.94,11.47,11.47,0,0,0,10.95,12l.54,0a11.46,11.46,0,0,0,11.48-11,105.84,105.84,0,0,0-1.74-24.31h454.4a11.5,11.5,0,0,0,0-23Z"/><path class="cls-2" d="M1531.3,691.08h-20V642a11.51,11.51,0,0,0-11.5-11.5H1257.78a11.51,11.51,0,0,0-11.5,11.5v273.3a11.5,11.5,0,1,0,23,0V653.47h219.07v37.61H1334.51a11.51,11.51,0,0,0-11.5,11.5V812a11.51,11.51,0,0,0,11.5,11.5h8c82.11.06,91.59.53,105.24,14.17,5.53,5.54,5.83,16,6.15,27,.3,10.25.63,21.86,6,31.53s15,15.43,28.46,17v108.13h-25.79a11.5,11.5,0,0,0,0,23h37.29a11.51,11.51,0,0,0,11.5-11.5V714.08h8.45v58.2a11.5,11.5,0,0,0,23,0v-69.7A11.51,11.51,0,0,0,1531.3,691.08Zm-185.29,23h142.34V890c-5.11-1-7.07-3-8.17-4.73-2.6-4.21-3-11.79-3.29-21.26-.39-13.63-.88-30.59-12.88-42.59-20.53-20.53-37.78-20.9-118-20.91Z"/></g></g></svg>